<svg xmlns="http://www.w3.org/2000/svg"  width="200" height="200" viewBox="0 0 1024 1024">
    <path
        d="M512 32C246.92 32 32 246.92 32 512s214.92 480 480 480 480-214.92 480-480S777.08 32 512 32z m19.99999969 760.00000031a60 60 0 1 1 0-120 60 60 0 0 1 0 120z m46.44-251.60000062a54.12 54.12 0 0 1-47.67999938 50.52c1.84000031 0.19999969 3.48 1.08 5.31999938 1.08h-10.47999938c1.8 0 3.40000031-0.88000031 5.19999938-1.08a52.99999969 52.99999969 0 0 1-47.19999938-50.47999969l-11.56000031-256.84000031A48.6 48.6 0 0 1 520.52 231.99999969h23.32000031c28.03999969 0 49.60000031 22.51999969 48.07999969 51.6l-13.48000031 256.8z"
        fill="#FCB324"></path>
</svg>